<mxfile host="app.diagrams.net" modified="2021-06-30T16:50:50.308Z" agent="5.0 (Macintosh; Intel Mac OS X 10_15_6) AppleWebKit/605.1.15 (KHTML, like Gecko) Version/14.0.3 Safari/605.1.15" etag="NNPTwJDhls5MxqWRqPYB" version="14.6.11" type="github">
  <diagram id="MyO1NP170Oxl3Cmgn4bB" name="第 1 页">
    <mxGraphModel dx="946" dy="558" grid="1" gridSize="10" guides="1" tooltips="1" connect="1" arrows="1" fold="1" page="1" pageScale="1" pageWidth="827" pageHeight="1169" math="0" shadow="0">
      <root>
        <mxCell id="0" />
        <mxCell id="1" parent="0" />
        <mxCell id="TVnOm0zYXoVIGoXwB4Vy-22" value="" style="shape=flexArrow;endArrow=classic;startArrow=classic;html=1;fontSize=16;fillColor=#cdeb8b;strokeColor=#36393d;width=86;endSize=5.73;endWidth=44;startSize=5.73;startWidth=24;" edge="1" parent="1">
          <mxGeometry width="100" height="100" relative="1" as="geometry">
            <mxPoint x="200" y="320" as="sourcePoint" />
            <mxPoint x="500" y="321" as="targetPoint" />
          </mxGeometry>
        </mxCell>
        <mxCell id="TVnOm0zYXoVIGoXwB4Vy-2" value="" style="rounded=0;whiteSpace=wrap;html=1;fillColor=#cce5ff;strokeColor=#36393d;" vertex="1" parent="1">
          <mxGeometry x="70" y="120" width="120" height="360" as="geometry" />
        </mxCell>
        <mxCell id="TVnOm0zYXoVIGoXwB4Vy-3" value="" style="rounded=0;whiteSpace=wrap;html=1;fillColor=#ffcc99;strokeColor=#36393d;" vertex="1" parent="1">
          <mxGeometry x="510" y="120" width="120" height="350" as="geometry" />
        </mxCell>
        <mxCell id="TVnOm0zYXoVIGoXwB4Vy-15" value="主服务器" style="text;html=1;align=center;verticalAlign=middle;resizable=0;points=[];autosize=1;strokeColor=none;fontSize=16;" vertex="1" parent="1">
          <mxGeometry x="97.5" y="80" width="80" height="20" as="geometry" />
        </mxCell>
        <mxCell id="TVnOm0zYXoVIGoXwB4Vy-16" value="从服务器&lt;br&gt;" style="text;html=1;align=center;verticalAlign=middle;resizable=0;points=[];autosize=1;strokeColor=none;fontSize=16;" vertex="1" parent="1">
          <mxGeometry x="500" y="80" width="80" height="20" as="geometry" />
        </mxCell>
        <mxCell id="TVnOm0zYXoVIGoXwB4Vy-18" value="主从服务器完成第一次数据同步后，&lt;br style=&quot;font-size: 16px;&quot;&gt;网络连接会一直维持着" style="rounded=0;whiteSpace=wrap;html=1;fillColor=#ffff88;strokeColor=#36393d;fontSize=16;" vertex="1" parent="1">
          <mxGeometry x="220" y="190" width="260" height="60" as="geometry" />
        </mxCell>
        <mxCell id="TVnOm0zYXoVIGoXwB4Vy-23" value="" style="shape=flexArrow;endArrow=classic;html=1;fontSize=16;fillColor=#cce5ff;strokeColor=#36393d;" edge="1" parent="1">
          <mxGeometry width="50" height="50" relative="1" as="geometry">
            <mxPoint x="270" y="330" as="sourcePoint" />
            <mxPoint x="430" y="330" as="targetPoint" />
          </mxGeometry>
        </mxCell>
        <mxCell id="TVnOm0zYXoVIGoXwB4Vy-33" value="传输写操作命令" style="edgeLabel;html=1;align=center;verticalAlign=middle;resizable=0;points=[];fontSize=16;" vertex="1" connectable="0" parent="TVnOm0zYXoVIGoXwB4Vy-23">
          <mxGeometry x="0.2" y="2" relative="1" as="geometry">
            <mxPoint x="-25" y="-18" as="offset" />
          </mxGeometry>
        </mxCell>
      </root>
    </mxGraphModel>
  </diagram>
</mxfile>
